# AST/ASF file generated using VICON BodyLanguage
# -----------------------------------------------
:version 1.10
:name VICON
:units
  mass 1.0
  length 0.45
  angle deg
:documentation
   .ast/.asf automatically generated from VICON data using
   VICON BodyBuilder and BodyLanguage model FoxedUp or BRILLIANT.MOD
:root
   order TX TY TZ RX RY RZ
   axis XYZ
   position 0 0 0  
   orientation 0 0 0 
:bonedata
  begin
     id 1 
     name lhipjoint
     direction 0.577973 -0.728611 0.367523 
     length 2.48544 
     axis 0 0 0  XYZ
  end
  begin
     id 2 
     name lfemur
     direction 0.34202 -0.939693 0  
     length 7.1921  
     axis 0 0 20  XYZ
    dof rx ry rz
    limits (-160.0 20.0)
           (-70.0 70.0)
           (-60.0 70.0)
  end
  begin
     id 3 
     name ltibia
     direction 0.34202 -0.939693 0   
     length 7.71059   
     axis 0 0 20   XYZ
    dof rx
    limits (-10.0 170.0)
  end
  begin
     id 4 
     name lfoot
     direction 0.089538 -0.246004 0.965124   
     length 2.19909   
     axis -90 7.62852e-016 20   XYZ
    dof rx rz
    limits (-45.0 90.0)
           (-70.0 20.0)
  end
  begin
     id 5 
     name ltoes
     direction 1.53544e-011 -4.21829e-011 1   
     length 1.10116   
     axis -90 7.62852e-016 20   XYZ
    dof rx
    limits (-90.0 20.0)
  end
  begin
     id 6 
     name rhipjoint
     direction -0.554414 -0.743062 0.374812   
     length 2.4371  
     axis 0 0 0  XYZ 
  end
  begin
     id 7 
     name rfemur
     direction -0.34202 -0.939693 0   
     length 7.47254   
     axis 0 0 -20   XYZ
    dof rx ry rz
    limits (-160.0 20.0)
           (-70.0 70.0)
           (-70.0 60.0)
  end
  begin
     id 8 
     name rtibia
     direction -0.34202 -0.939693 0   
     length 7.65855   
     axis 0 0 -20   XYZ
    dof rx
    limits (-10.0 170.0)
 end
 begin
     id 9 
     name rfoot
     direction -0.133779 -0.367555 0.92033   
     length 2.43006  
     axis -90 -7.62852e-016 -20   XYZ
    dof rx rz
    limits (-45.0 90.0)
           (-20.0 70.0)
  end
  begin
     id 10 
     name rtoes
     direction -1.53563e-011 -4.21889e-011 1   
     length 1.19625   
     axis -90 -7.62852e-016 -20   XYZ
    dof rx
    limits (-90.0 20.0)
  end
  begin
     id 11 
     name lowerback
     direction 0.0249066 0.998043 -0.0573585   
     length 2.08485   
     axis 0 0 0   XYZ
    dof rx ry rz
    limits (-20.0 45.0)
           (-30.0 30.0)
           (-30.0 30.0)
  end
  begin
     id 12 
     name upperback
     direction 0.0237884 0.999673 0.00943178   
     length 2.08515   
     axis 0 0 0   XYZ
    dof rx ry rz
    limits (-20.0 45.0)
           (-30.0 30.0)
           (-30.0 30.0)
  end
  begin
     id 13 
     name thorax
     direction 0.0106671 0.999301 0.0358174   
     length 2.09037   
     axis 0 0 0   XYZ
    dof rx ry rz
    limits (-20.0 45.0)
           (-30.0 30.0)
           (-30.0 30.0)
  end
  begin
     id 14 
     name lowerneck
     direction -0.0580016 0.987052 0.149546   
     length 1.84454   
     axis 0 0 0   XYZ
    dof rx ry rz
    limits (-20.0 45.0)
           (-30.0 30.0)
           (-30.0 30.0)
  end
  begin
     id 15 
     name upperneck
     direction 0.079456 0.981963 -0.171567   
     length 1.88141   
     axis 0 0 0   XYZ
    dof rx ry rz
    limits (-20.0 45.0)
           (-30.0 30.0)
           (-30.0 30.0)
  end
  begin
     id 16
     name head
     direction 0.0262167 0.9967 -0.0768276  
     length 1.89541  
     axis 0 0 0   XYZ
    dof rx ry rz
    limits (-20.0 45.0)
           (-30.0 30.0)
           (-30.0 30.0)
  end
  begin
     id 17 
     name lclavicle
     direction 0.946135 0.322134 -0.0325326  
     length 3.949  
     axis 0 0 0   XYZ
    dof ry rz
    limits (-20.0 10.0)
           (0.0 20.0)
  end
  begin
     id 18 
     name lhumerus
     direction 1 -4.48964e-011 1.94005e-028   
     length 5.10995   
     axis 180 -30 -90   XYZ
    dof rx ry rz
    limits (-60.0 90.0)
           (-90.0 90.0)
           (-90.0 90.0)
  end
  begin
     id 19
     name lradius
     direction 1 -4.48976e-011 2.87852e-027   
     length 3.21207   
     axis 180 -30 -90   XYZ
    dof rx
    limits (-10.0 170.0)
  end
  begin
     id 20
     name lwrist
     direction 1 -4.48963e-011 1.9975e-027   
     length 1.60604   
     axis 2.96054e-016 90 90   XYZ
    dof ry
    limits (-180.0 0.0)
 end
  begin
     id 21 
     name lhand
     direction 1 -4.48919e-011 4.00227e-027   
     length 0.63349   
     axis -2.5488e-015 90 90   XYZ
    dof rx rz
    limits (-90.0 90.0)
           (-45.0 45.0)
  end
  begin
     id 22 
     name lfingers
     direction 1 -4.49037e-011 7.9652e-027   
     length 0.510736   
     axis -5.0975e-015 90 90   XYZ
    dof rx
    limits (0.0 90.0)
  end
  begin
     id 23
     name lthumb
     direction 0.707107 -6.34922e-011 0.707107   
     length 0.733318   
     axis -90 45 -4.48553e-014   XYZ
    dof rx rz
    limits (-45.0 45.0)
           (-45.0 45.0)
  end
  begin
     id 24 
     name rclavicle
     direction -0.940085 0.328911 -0.0897654   
     length 3.93848  
     axis 0 0 0   XYZ 
    dof ry rz
    limits (-10.0 20.0)
           (-20.0 0.0)
  end
  begin
     id 25 
     name rhumerus
     direction -1 -4.48958e-011 3.02044e-027  
     length 5.25109   
     axis 180 30 90   XYZ
    dof rx ry rz
    limits (-90.0 60.0)
           (-90.0 90.0)
           (-90.0 90.0)
  end
  begin
     id 26 
     name rradius
     direction -1 -4.4897e-011 9.78352e-028   
     length 3.28364   
     axis 180 30 90   XYZ
    dof rx
    limits (-10.0 170.0)
  end
  begin
     id 27 
     name rwrist
     direction -1 -4.48943e-011 1.99918e-027   
     length 1.64182   
     axis 2.96054e-016 -90 -90   XYZ
    dof ry
    limits (-180.0 0.0)
  end
  begin
     id 28
     name rhand
     direction -1 -4.49024e-011 3.98478e-027   
     length 0.599745   
     axis -2.5488e-015 -90 -90   XYZ
    dof rx rz
    limits (-90.0 90.0)
           (-45.0 45.0)
  end
  begin
     id 29
     name rfingers
     direction -1 -4.48914e-011 8.00621e-027   
     length 0.48353   
     axis -5.0975e-015 -90 -90   XYZ
    dof rx
    limits (0.0 90.0)
  end
  begin
     id 30
     name rthumb
     direction -0.707107 -6.34992e-011 0.707107   
     length 0.694255   
     axis -90 -45 4.48553e-014   XYZ
    dof rx rz
    limits (-45.0 45.0)
           (-45.0 45.0)
  end
:hierarchy
  begin
    root lhipjoint rhipjoint lowerback
    lhipjoint lfemur
    lfemur ltibia
    ltibia lfoot
    lfoot ltoes
    rhipjoint rfemur
    rfemur rtibia
    rtibia rfoot
    rfoot rtoes
    lowerback upperback
    upperback thorax
    thorax lowerneck lclavicle rclavicle
    lowerneck upperneck
    upperneck head
    lclavicle lhumerus
    lhumerus lradius
    lradius lwrist
    lwrist lhand lthumb
    lhand lfingers
    rclavicle rhumerus
    rhumerus rradius
    rradius rwrist
    rwrist rhand rthumb
    rhand rfingers
  end

#!OML:ASF E:\CV Data\Top Level 1\Subject 1\Session 1\player.ASF
:FULLY-SPECIFIED
:DEGREES
444
root 1.07196 18.1726 -8.15617 -86.8769 78.1097 -85.1474
lowerback 4.12294 -2.9743 2.4133
upperback -3.59546 -3.73816 0.781112
thorax -6.15369 -1.91829 -0.183599
lowerneck 6.83486 -15.8866 -20.9107
upperneck -22.3382 -20.3187 23.6504
head -2.75251 -10.1892 10.9043
rclavicle -5.70512e-014 0
rhumerus 93.0273 -36.6323 -52.0906
rradius 23.649
rwrist 32.7179
rhand 11.2967 -3.23852
rfingers 7.12502
rthumb 36.3552 -29.467
lclavicle -5.70512e-014 0
lhumerus 42.0662 28.0697 2.96182
lradius 45.465
lwrist 10.6761
lhand -9.8532 7.38132
lfingers 7.12502
lthumb 16.125 36.7305
rfemur -6.70628 4.33137 23.2736
rtibia 36.2924
rfoot 3.81813 -4.31518
rtoes -10.1
lfemur -2.72672 -1.93038 -4.67582
ltibia 35.469
lfoot -3.29709 -7.04457
ltoes -16.5381
445
root 0.995095 17.8562 -8.06774 -88.9546 77.9674 -87.1405
lowerback 4.58607 -3.01298 2.34735
upperback -3.33429 -3.77839 0.974474
thorax -6.12659 -1.93024 0.0741601
lowerneck 7.33333 -15.7554 -20.7465
upperneck -23.803 -19.984 24.0756
head -3.28191 -10.0468 11.2391
rclavicle 3.04141e-014 2.38542e-014
rhumerus 92.2278 -37.4306 -51.4415
rradius 24.3593
rwrist 31.9364
rhand 11.5872 -3.406
rfingers 7.12502
rthumb 36.6301 -29.5652
lclavicle 3.04141e-014 2.38542e-014
lhumerus 39.5669 28.7206 2.30219
lradius 46.0696
lwrist 10.85
lhand -10.3587 7.43362
lfingers 7.12502
lthumb 15.6382 36.8216
rfemur -6.62882 4.17081 23.2192
rtibia 37.7227
rfoot -1.88528 -2.96795
rtoes -16.4402
lfemur -3.40011 -0.955532 -4.16427
ltibia 37.7584
lfoot -9.23691 -6.99467
ltoes -17.3602
446
root 0.915257 17.5567 -7.97306 -91.3097 77.943 -89.3432
lowerback 5.23977 -3.08419 2.02827
upperback -3.06538 -3.87772 1.15213
thorax -6.18443 -1.96159 0.473802
lowerneck 7.93662 -15.5906 -20.5537
upperneck -25.3969 -19.5876 24.5492
head -3.88141 -9.88123 11.6289
rclavicle -1.94809e-014 -2.8625e-014
rhumerus 91.006 -38.2185 -50.5029
rradius 25.5147
rwrist 30.6777
rhand 12.0591 -3.82062
rfingers 7.12502
rthumb 37.0766 -29.8652
lclavicle -1.94809e-014 -2.8625e-014
lhumerus 37.043 29.4512 1.9162
lradius 46.725
lwrist 10.4653
lhand -10.7733 7.30289
lfingers 7.12502
lthumb 15.2388 36.7216
rfemur -6.57861 3.86994 23.1366
rtibia 39.2682
rfoot -7.46471 -2.1976
rtoes -20.3689
lfemur -4.24198 0.00603627 -3.67275
ltibia 40.0929
lfoot -14.4906 -6.88651
ltoes -16.5404
447
root 0.834775 17.2813 -7.87209 -94.0141 78.0961 -91.8508
lowerback 6.0252 -3.15652 1.43721
upperback -2.78149 -4.00861 1.2331
thorax -6.28769 -2.0001 0.93686
lowerneck 8.47875 -15.4748 -20.2471
upperneck -26.917 -19.2244 25.0133
head -4.46333 -9.73965 11.9957
rclavicle 1.78906e-015 -1.90833e-014
rhumerus 89.0688 -39.0884 -49.0758
rradius 27.2453
rwrist 28.8767
rhand 12.7008 -4.50373
rfingers 7.12502
rthumb 37.6832 -30.3884
lclavicle 1.78906e-015 -1.90833e-014
lhumerus 34.6033 30.2871 1.8948
lradius 47.5501
lwrist 9.45416
lhand -11.1049 7.09497
lfingers 7.12502
lthumb 14.9194 36.5377
rfemur -6.62837 3.378 22.9702
rtibia 40.8566
rfoot -12.5492 -2.00909
rtoes -22.0001
lfemur -5.21669 0.869043 -3.31715
ltibia 42.3124
lfoot -18.9071 -6.72399
ltoes -15.2392
448
root 0.755433 17.0324 -7.76797 -96.7402 78.3138 -94.3985
lowerback 6.80085 -3.19417 0.766081
upperback -2.48069 -4.11528 1.21008
thorax -6.36668 -2.02634 1.33464
lowerneck 8.8697 -15.4401 -19.8392
upperneck -28.2632 -18.9314 25.4727
head -4.97129 -9.64054 12.3146
rclavicle 3.46879e-014 -3.18055e-015
rhumerus 86.1998 -40.0607 -47.0122
rradius 29.656
rwrist 26.5551
rhand 13.4548 -5.43281
rfingers 7.12502
rthumb 38.3953 -31.1234
lclavicle 3.46879e-014 -3.18055e-015
lhumerus 32.2455 31.2442 2.26455
lradius 48.6736
lwrist 7.88188
lhand -11.3746 6.87859
lfingers 7.12502
lthumb 14.6596 36.3404
rfemur -6.87469 2.66429 22.8307
rtibia 42.4289
rfoot -17.0021 -2.38488
rtoes -21.9637
lfemur -6.25601 1.62882 -3.02787
ltibia 44.3421
lfoot -22.7551 -6.36149
ltoes -14.0123
449
root 0.678294 16.8081 -7.66572 -99.2327 78.5443 -96.7498
lowerback 7.45679 -3.17714 0.175113
upperback -2.14698 -4.15767 1.06826
thorax -6.35614 -2.02815 1.54881
lowerneck 9.0655 -15.5072 -19.3596
upperneck -29.381 -18.7421 25.9294
head -5.36719 -9.59954 12.5697
rclavicle -1.2921e-015 -2.54444e-014
rhumerus 82.2798 -41.1082 -44.2766
rradius 32.81
rwrist 23.8521
rhand 14.2048 -6.52412
rfingers 7.12502
rthumb 39.1026 -32.0147
lclavicle -1.2921e-015 -2.54444e-014
lhumerus 29.9145 32.3134 3.02093
lradius 50.2142
lwrist 5.90828
lhand -11.6412 6.68941
lfingers 7.12502
lthumb 14.4028 36.1697
rfemur -7.32394 1.74719 22.7622
rtibia 43.9447
rfoot -20.873 -3.1917
rtoes -21.1735
lfemur -7.26478 2.25984 -2.80044
ltibia 46.1614
lfoot -26.0995 -5.62415
ltoes -13.3914
450
root 0.605923 16.6095 -7.57002 -101.023 78.6631 -98.4278
lowerback 7.91767 -3.09542 -0.141674
upperback -1.76444 -4.09455 0.854274
thorax -6.20955 -1.99216 1.50768
lowerneck 9.06513 -15.6603 -18.8878
upperneck -30.2693 -18.6474 26.4192
head -5.63455 -9.60963 12.7789
rclavicle 3.45885e-014 -2.38542e-014
rhumerus 77.3315 -42.1289 -40.9676
rradius 36.7315
rwrist 21.0196
rhand 14.8165 -7.65201
rfingers 7.12502
rthumb 39.6789 -32.9741
lclavicle 3.45885e-014 -2.38542e-014
lhumerus 27.4509 33.4327 4.06331
lradius 52.2478
lwrist 3.80441
lhand -12.0163 6.6171
lfingers 7.12502
lthumb 14.0413 36.1228
rfemur -7.88621 0.689824 22.9105
rtibia 45.3744
rfoot -24.1875 -4.4988
rtoes -20.0309
lfemur -8.17358 2.74431 -2.5132
ltibia 47.8038
lfoot -28.9876 -4.27354
ltoes -13.8261
451
root 0.540156 16.4403 -7.48527 -101.833 78.662 -99.1299
lowerback 8.19057 -2.95311 -0.135726
upperback -1.33535 -3.91851 0.601781
thorax -5.93444 -1.91398 1.21866
lowerneck 8.92793 -15.8709 -18.4568
upperneck -30.999 -18.6277 26.9166
head -5.80776 -9.65486 12.9532
rclavicle -3.1408e-014 -1.59028e-014
rhumerus 71.5339 -42.9781 -37.3228
rradius 41.3672
rwrist 18.3764
rhand 15.0874 -8.62152
rfingers 7.12502
rthumb 39.9339 -33.8675
lclavicle -3.1408e-014 -1.59028e-014
lhumerus 24.702 34.5177 5.29262
lradius 54.7458
lwrist 1.82392
lhand -12.6356 6.69388
lfingers 7.12502
lthumb 13.4445 36.24
rfemur -8.46219 -0.32268 23.2689
rtibia 46.7022
rfoot -26.8643 -6.08234
rtoes -18.7281
lfemur -8.95287 3.07196 -2.15944
ltibia 49.2967
lfoot -31.2583 -2.45671
ltoes -14.561
452
root 0.480332 16.2996 -7.41142 -101.679 78.5991 -98.8231
lowerback 8.36841 -2.77062 0.0938459
upperback -0.88055 -3.66332 0.344456
thorax -5.59295 -1.80247 0.783823
lowerneck 8.7622 -16.0713 -18.1137
upperneck -31.6691 -18.6098 27.414
head -5.94832 -9.69471 13.1312
rclavicle 2.33572e-015 1.74931e-014
rhumerus 65.1525 -43.491 -33.6416
rradius 46.6233
rwrist 16.203
rhand 14.7728 -9.19826
rfingers 7.12502
rthumb 39.6378 -34.5326
lclavicle 2.33572e-015 1.74931e-014
lhumerus 21.4889 35.4692 6.55302
lradius 57.5757
lwrist 0.20328
lhand -13.6427 6.97325
lfingers 7.12502
lthumb 12.4736 36.581
rfemur -8.98213 -1.07051 23.7503
rtibia 47.9398
rfoot -28.9875 -7.67329
rtoes -17.4479
lfemur -9.56911 3.26238 -1.78724
ltibia 50.6626
lfoot -32.8005 -0.329637
ltoes -15.3693
453
root 0.424872 16.1863 -7.34628 -100.809 78.5289 -97.7354
lowerback 8.54707 -2.57201 0.397748
upperback -0.428216 -3.37468 0.119554
thorax -5.25349 -1.67231 0.337805
lowerneck 8.58709 -16.2369 -17.8934
upperneck -32.2823 -18.5751 27.89
head -6.06357 -9.71484 13.3158
rclavicle -4.27884e-014 -7.95139e-015
rhumerus 58.5035 -43.5589 -30.2281
rradius 52.3671
rwrist 14.724
rhand 13.663 -9.21459
rfingers 7.12502
rthumb 38.5917 -34.8503
lclavicle -4.27884e-014 -7.95139e-015
lhumerus 17.7522 36.2406 7.79987
lradius 60.5063
lwrist -0.947872
lhand -15.1156 7.49719
lfingers 7.12502
lthumb 11.0533 37.1861
rfemur -9.44386 -1.40921 24.2469
rtibia 49.118
rfoot -30.5868 -9.0109
rtoes -16.3531
lfemur -10.0256 3.30184 -1.44534
ltibia 51.9081
lfoot -33.6199 1.80973
ltoes -15.9387
454
root 0.37152 16.0977 -7.28749 -99.5128 78.5227 -96.1657
lowerback 8.78493 -2.37837 0.63621
upperback -0.0108594 -3.095 -0.0687305
thorax -4.97384 -1.54057 -0.0282662
lowerneck 8.45403 -16.332 -17.8132
upperneck -32.8594 -18.4822 28.3502
head -6.17572 -9.69526 13.5269
rclavicle -4.65902e-014 4.77083e-015
rhumerus 51.7743 -43.1377 -27.2555
rradius 58.4616
rwrist 14.0065
rhand 11.5934 -8.62305
rfingers 7.12502
rthumb 36.636 -34.7807
lclavicle -4.65902e-014 4.77083e-015
lhumerus 13.5022 36.7937 9.00296
lradius 63.2897
lwrist -1.54695
lhand -17.0375 8.2611
lfingers 7.12502
lthumb 9.19919 38.0404
rfemur -9.88626 -1.33715 24.6387
rtibia 50.2701
rfoot -31.6558 -9.96647
rtoes -15.8042
lfemur -10.3582 3.18255 -1.21598
ltibia 53.0267
lfoot -33.8673 3.69042
ltoes -16.2132
455
root 0.319786 16.03 -7.23234 -98.0286 78.649 -94.3755
lowerback 9.0767 -2.18103 0.704582
upperback 0.355355 -2.82491 -0.238128
thorax -4.76475 -1.40704 -0.275032
lowerneck 8.34917 -16.3948 -17.8811
upperneck -33.3535 -18.396 28.7815
head -6.25277 -9.66657 13.7434
rclavicle 2.34628e-014 -1.11319e-014
rhumerus 45.0745 -42.2522 -24.7817
rradius 64.7008
rwrist 14.0482
rhand 8.45729 -7.46995
rfingers 7.12502
rthumb 33.6617 -34.3282
lclavicle 2.34628e-014 -1.11319e-014
lhumerus 8.89868 37.1339 10.2925
lradius 65.7073
lwrist -1.58627
lhand -19.2526 9.15856
lfingers 7.12502
lthumb 7.06129 39.0208
rfemur -10.339 -0.951594 24.84
rtibia 51.3953
rfoot -32.2683 -10.5366
rtoes -15.7753
lfemur -10.581 2.9263 -1.17952
ltibia 53.982
lfoot -33.7803 5.18591
ltoes -16.3104
456
root 0.271169 15.9795 -7.18066 -96.1559 78.7731 -92.2206
lowerback 9.33858 -1.97804 0.745333
upperback 0.669903 -2.54798 -0.370105
thorax -4.58738 -1.26836 -0.468996
lowerneck 8.22147 -16.4466 -18.0003
upperneck -33.7411 -18.3273 29.157
head -6.29101 -9.63829 13.9304
rclavicle -1.36664e-016 6.36111e-015
rhumerus 38.4938 -40.9558 -22.8751
rradius 70.8619
rwrist 14.7563
rhand 4.25474 -5.88565
rfingers 7.12502
rthumb 29.6589 -33.5342
lclavicle -1.36664e-016 6.36111e-015
lhumerus 4.0906 37.3387 11.7353
lradius 67.5913
lwrist -1.05259
lhand -21.4674 10.138
lfingers 7.12502
lthumb 4.92305 40.0609
rfemur -10.8226 -0.383131 24.997
rtibia 52.4274
rfoot -32.5384 -10.7555
rtoes -15.9476
lfemur -10.7071 2.62407 -1.1793
ltibia 54.7222
lfoot -33.6061 6.25778
ltoes -16.3576
457
root 0.228064 15.947 -7.13249 -93.9423 78.8581 -89.7615
lowerback 9.52543 -1.763 0.794639
upperback 0.932732 -2.25355 -0.470569
thorax -4.41888 -1.12075 -0.639346
lowerneck 8.08635 -16.5016 -18.0735
upperneck -34.0364 -18.2875 29.4301
head -6.31437 -9.6206 14.0598
rclavicle 2.44505e-014 4.77083e-015
rhumerus 32.0703 -39.2878 -21.5399
rradius 76.707
rwrist 15.971
rhand -0.930225 -3.97317
rfingers 7.12502
rthumb 24.6991 -32.3989
lclavicle 2.44505e-014 4.77083e-015
lhumerus -0.785276 37.4559 13.3901
lradius 68.8729
lwrist 0.0633468
lhand -23.3746 11.2474
lfingers 7.12502
lthumb 3.08129 41.2049
rfemur -11.2659 0.188687 25.1509
rtibia 53.2585
rfoot -32.5944 -10.7387
rtoes -16.0335
lfemur -10.6908 2.3278 -1.18734
ltibia 55.1715
lfoot -33.4813 7.03904
ltoes -16.4445
